<?xml version="1.0" standalone="no"?>
<!DOCTYPE svg PUBLIC "-//W3C//DTD SVG 20010904//EN"
 "http://www.w3.org/TR/2001/REC-SVG-20010904/DTD/svg10.dtd">
<svg version="1.0" xmlns="http://www.w3.org/2000/svg"
 width="512.000000pt" height="512.000000pt" viewBox="0 0 512.000000 512.000000"
 preserveAspectRatio="xMidYMid meet">

<g transform="translate(0.000000,512.000000) scale(0.100000,-0.100000)"
fill="#000000" stroke="none">
<path d="M2484 5110 c-56 -17 -127 -73 -159 -124 -25 -42 -31 -62 -34 -128 -3
-69 0 -85 23 -133 30 -59 68 -96 133 -128 l43 -21 0 -433 0 -433 -32 0 c-27 0
-139 -22 -245 -47 l-23 -5 0 225 0 226 -26 20 c-26 20 -38 21 -340 21 l-314 0
0 159 0 159 55 26 c97 48 149 132 149 241 0 158 -115 276 -269 274 -106 -1
-191 -50 -238 -137 -76 -141 -24 -308 118 -378 l55 -26 0 -208 c0 -188 2 -208
18 -223 17 -15 55 -17 340 -17 l322 0 0 -210 0 -210 -47 -24 c-179 -91 -378
-290 -469 -468 l-24 -48 -210 0 -210 0 0 323 c0 301 -1 325 -18 340 -16 15
-47 17 -224 17 l-206 0 -26 55 c-106 216 -419 198 -503 -28 -20 -55 -16 -146
11 -202 49 -105 134 -159 251 -159 114 0 200 56 247 162 l19 42 159 0 160 0 0
-314 c0 -302 1 -314 21 -340 l20 -26 226 0 225 0 -5 -22 c-25 -107 -47 -219
-47 -245 l0 -33 -433 0 -433 0 -21 43 c-51 106 -132 157 -248 157 -115 0 -192
-48 -248 -154 -31 -58 -31 -174 0 -232 56 -106 133 -154 248 -154 116 0 197
51 248 157 l21 43 433 0 433 0 0 -32 c0 -27 22 -139 47 -245 l5 -23 -225 0
-226 0 -20 -26 c-20 -26 -21 -38 -21 -340 l0 -314 -160 0 -159 0 -19 43 c-47
105 -133 161 -247 161 -158 1 -276 -115 -274 -269 1 -106 50 -191 137 -238
141 -76 308 -24 378 118 l26 55 208 0 c188 0 208 2 223 18 15 17 17 55 17 340
l0 322 210 0 210 0 24 -47 c91 -179 290 -378 469 -469 l47 -24 0 -210 0 -210
-323 0 c-301 0 -325 -1 -340 -18 -15 -16 -17 -47 -17 -224 l0 -206 -55 -26
c-216 -106 -198 -419 28 -503 55 -20 146 -16 202 11 105 49 159 134 159 251 0
114 -56 200 -162 247 l-42 19 0 159 0 160 314 0 c302 0 314 1 340 21 l26 20 0
226 0 225 23 -5 c106 -25 218 -47 245 -47 l32 0 0 -433 0 -433 -43 -21 c-106
-51 -157 -132 -157 -248 0 -115 48 -192 154 -248 58 -31 174 -31 232 0 106 56
154 133 154 248 0 116 -51 197 -157 248 l-43 21 0 433 0 433 33 0 c26 0 138
22 245 47 l22 5 0 -225 0 -226 26 -20 c26 -20 38 -21 340 -21 l314 0 0 -160 0
-159 -42 -19 c-106 -47 -162 -133 -162 -247 -1 -296 384 -382 519 -116 63 125
-3 303 -135 360 l-50 22 0 208 c0 189 -2 209 -18 224 -17 15 -55 17 -340 17
l-322 0 0 210 0 210 48 24 c176 90 378 292 468 469 l24 47 210 0 210 0 0 -323
c0 -301 1 -325 18 -340 16 -15 47 -17 224 -17 l206 0 26 -55 c100 -203 384
-206 485 -4 94 188 -34 394 -244 393 -114 0 -200 -56 -247 -162 l-19 -42 -159
0 -160 0 0 314 c0 302 -1 314 -21 340 l-20 26 -226 0 -225 0 5 23 c25 106 47
218 47 245 l0 32 433 0 433 0 21 -43 c51 -106 132 -157 248 -157 115 0 192 48
248 154 31 58 31 174 0 232 -56 106 -133 154 -248 154 -116 0 -197 -51 -248
-157 l-21 -43 -433 0 -433 0 0 33 c0 26 -22 138 -47 245 l-5 22 225 0 226 0
20 26 c20 26 21 38 21 340 l0 314 159 0 159 0 26 -55 c48 -97 132 -149 241
-149 158 0 276 115 274 269 -1 106 -50 191 -137 238 -141 77 -320 19 -381
-123 l-22 -50 -208 0 c-189 0 -209 -2 -224 -18 -15 -17 -17 -55 -17 -340 l0
-322 -210 0 -210 0 -24 48 c-91 178 -290 377 -468 468 l-48 24 0 210 0 210
323 0 c301 0 325 1 340 18 15 16 17 47 17 225 l0 206 50 22 c142 61 200 240
123 381 -47 87 -132 136 -238 137 -154 2 -270 -116 -269 -274 0 -114 56 -200
162 -247 l42 -19 0 -159 0 -160 -314 0 c-302 0 -314 -1 -340 -21 l-26 -20 0
-226 0 -225 -22 5 c-107 25 -219 47 -245 47 l-33 0 0 433 0 433 43 21 c106 51
157 132 157 247 -1 113 -49 195 -144 243 -56 28 -150 39 -202 23z m152 -145
c63 -41 83 -134 41 -196 -79 -118 -257 -65 -257 77 0 109 126 178 216 119z
m176 -1413 c186 -50 332 -135 469 -271 136 -136 219 -280 271 -469 18 -65 22
-104 22 -252 0 -192 -11 -253 -74 -403 -93 -224 -313 -444 -537 -537 -150 -63
-211 -74 -403 -74 -192 0 -253 11 -403 74 -224 93 -444 313 -537 537 -63 150
-74 211 -74 403 0 148 4 187 22 252 78 281 252 505 503 646 77 44 178 81 279
103 116 26 349 21 462 -9z m-2461 -875 c45 -30 71 -82 65 -130 -20 -168 -262
-168 -282 0 -10 78 60 153 141 153 27 0 54 -8 76 -23z m4570 0 c45 -30 71 -82
65 -130 -20 -168 -262 -168 -282 0 -10 78 60 153 141 153 27 0 54 -8 76 -23z
m-2285 -2282 c63 -41 83 -134 41 -196 -79 -118 -257 -65 -257 77 0 109 126
178 216 119z"/>
<path d="M2400 3375 c-393 -81 -670 -418 -670 -815 0 -458 372 -830 830 -830
458 0 830 372 830 830 0 303 -163 578 -431 729 -158 88 -380 123 -559 86z
m293 -129 c322 -62 567 -359 567 -686 0 -327 -245 -624 -567 -686 -377 -72
-747 178 -819 553 -46 241 28 468 209 640 166 157 385 222 610 179z"/>
<path d="M2532 3148 c-7 -7 -12 -35 -12 -63 l0 -51 -69 -17 c-150 -39 -236
-157 -211 -287 5 -25 9 -48 10 -52 0 -5 17 -26 37 -49 41 -45 91 -74 173 -100
l55 -17 3 -151 c2 -128 0 -151 -12 -151 -29 0 -124 41 -165 70 -22 17 -49 30
-59 30 -24 0 -62 -41 -62 -67 0 -48 146 -136 246 -149 l54 -6 0 -52 c0 -56 12
-76 45 -76 33 0 45 20 45 75 l0 51 58 12 c88 18 159 66 196 132 27 48 31 65
31 130 0 142 -58 200 -272 275 -10 3 -13 40 -13 135 l0 132 33 -7 c17 -4 59
-22 92 -40 33 -18 67 -30 75 -27 29 9 50 36 50 63 0 45 -90 104 -190 124 l-55
11 -3 54 c-2 30 -8 60 -14 67 -13 16 -50 17 -66 1z m-12 -364 c0 -125 0 -125
-22 -119 -49 15 -104 52 -117 79 -16 34 -3 92 28 120 17 16 83 44 104 46 4 0
7 -57 7 -126z m156 -323 c62 -28 87 -66 81 -124 -5 -54 -33 -91 -84 -113 -63
-27 -63 -28 -63 121 0 149 -2 147 66 116z"/>
</g>
</svg>
